/* XPM */
static char *ea9722d39a4c406c88f6ca8a0ae88737jiQ4JAyQKrvu2bAU[] = {
/* columns rows colors chars-per-pixel */
"64 64 254 2 ",
"   c #040101",
".  c #0D0102",
"X  c #0D050A",
"o  c #130302",
"O  c #12050B",
"+  c #1A0805",
"@  c #180815",
"#  c #1C1615",
"$  c #220B03",
"%  c #260707",
"&  c #2D1305",
"*  c #281309",
"=  c #36190B",
"-  c #270C14",
";  c #2A1716",
":  c #341B14",
">  c #371918",
",  c #3C0208",
"<  c #3C231C",
"1  c #382416",
"2  c #39210C",
"3  c #361B26",
"4  c #38252A",
"5  c #471B0F",
"6  c #4A230B",
"7  c #51280B",
"8  c #472619",
"9  c #562C1A",
"0  c #4A331E",
"q  c #5A331B",
"w  c #54330F",
"e  c #643A1B",
"r  c #411922",
"t  c #482928",
"y  c #552B27",
"u  c #4C352A",
"i  c #5C3524",
"p  c #593628",
"a  c #4A2C34",
"s  c #473439",
"d  c #5C3432",
"f  c #523C35",
"g  c #5B3A34",
"h  c #583738",
"j  c #532E35",
"k  c #643A28",
"l  c #673C39",
"z  c #612B2E",
"x  c #6D421E",
"c  c #5C433A",
"v  c #5A4437",
"b  c #694529",
"n  c #734A2B",
"m  c #6C4233",
"M  c #694639",
"N  c #744B33",
"B  c #734A3B",
"V  c #724634",
"C  c #7B5333",
"Z  c #7B543B",
"A  c #77553B",
"S  c #7C542E",
"D  c #553B45",
"F  c #5C4547",
"G  c #53514D",
"H  c #644343",
"J  c #6A4543",
"K  c #6B4B45",
"L  c #674A4A",
"P  c #734D4C",
"I  c #774C47",
"U  c #6B5348",
"Y  c #7B5444",
"T  c #74534C",
"R  c #7B534B",
"E  c #7C5C4C",
"W  c #775948",
"Q  c #744D52",
"!  c #695555",
"~  c #735453",
"^  c #7C5452",
"/  c #7B5B53",
"(  c #7D5C5B",
")  c #775859",
"_  c #664754",
"`  c #7E6456",
"'  c #7B635C",
"]  c #7E624F",
"[  c #7B5962",
"{  c #796563",
"}  c #835A3B",
"|  c #8A623D",
" . c #83564C",
".. c #835B4C",
"X. c #8A5B4D",
"o. c #875A43",
"O. c #855C54",
"+. c #8A5D54",
"@. c #845C5B",
"#. c #8C5E5B",
"$. c #835555",
"%. c #925E55",
"&. c #8A554F",
"*. c #8C6644",
"=. c #8C644C",
"-. c #886649",
";. c #92654D",
":. c #936C4C",
">. c #976949",
",. c #98734D",
"<. c #8C6253",
"1. c #82645B",
"2. c #8B635C",
"3. c #876858",
"4. c #946454",
"5. c #946B54",
"6. c #9A6C55",
"7. c #93655C",
"8. c #946B5C",
"9. c #9B6C5C",
"0. c #996557",
"q. c #9C7353",
"w. c #9C735C",
"e. c #997459",
"r. c #8A725B",
"t. c #A16E5A",
"y. c #A37B55",
"u. c #A2735D",
"i. c #A47B5B",
"p. c #A67759",
"a. c #855C63",
"s. c #856464",
"d. c #8C6463",
"f. c #896C66",
"g. c #936463",
"h. c #956B63",
"j. c #9B6D63",
"k. c #9A6C6A",
"l. c #956869",
"z. c #8C7269",
"x. c #947363",
"c. c #9C7463",
"v. c #9E7A64",
"b. c #9C736B",
"n. c #9D7A6B",
"m. c #957569",
"M. c #987674",
"N. c #8D7173",
"B. c #A26E62",
"V. c #A16B6C",
"C. c #A37464",
"Z. c #A47B64",
"A. c #AA7C64",
"S. c #A3756C",
"D. c #A57C6C",
"F. c #AB7C6C",
"G. c #AB766A",
"H. c #B17C6B",
"J. c #A27572",
"K. c #A47B73",
"L. c #AB7D73",
"P. c #A97A76",
"I. c #B07F77",
"U. c #A5825C",
"Y. c #AB845D",
"T. c #AB8559",
"R. c #B08A5E",
"E. c #988377",
"W. c #96806F",
"Q. c #A58163",
"!. c #AB8364",
"~. c #AE8964",
"^. c #AC836B",
"/. c #A8846D",
"(. c #B38B65",
"). c #B2846D",
"_. c #B38B6C",
"`. c #BA8C6C",
"'. c #B78769",
"]. c #BB936D",
"[. c #B79269",
"{. c #AD8473",
"}. c #AD8A74",
"|. c #AC837A",
" X c #AE8C7B",
".X c #A48578",
"XX c #B28473",
"oX c #B48C73",
"OX c #BA8D73",
"+X c #B48B7B",
"@X c #BB8C7B",
"#X c #B58679",
"$X c #B69173",
"%X c #BC9374",
"&X c #BE9974",
"*X c #BD947B",
"=X c #BF997B",
"-X c #B5937D",
";X c #AB9279",
":X c #C19673",
">X c #C49B75",
",X c #C2957B",
"<X c #C39C7C",
"1X c #CA9D7B",
"2X c #C89B77",
"3X c #C18E7E",
"4X c #C6A17C",
"5X c #CBA27D",
"6X c #C7A177",
"7X c #D0A17F",
"8X c #977880",
"9X c #AC8F84",
"0X c #B48D83",
"qX c #B69383",
"wX c #BC9382",
"eX c #BB9988",
"rX c #AC9489",
"tX c #BAA18C",
"yX c #C49B82",
"uX c #CA9D83",
"iX c #C69A88",
"pX c #C59A8F",
"aX c #C5A382",
"sX c #CCA483",
"dX c #CEA986",
"fX c #CDA48B",
"gX c #CEA98B",
"hX c #C4A48B",
"jX c #D1A682",
"kX c #D3AB85",
"lX c #D4AC8B",
"zX c #D9AE8B",
"xX c #D4A889",
"cX c #D6B18B",
"vX c #DAB38D",
"bX c #DDB98F",
"nX c #D3B086",
"mX c #CBA794",
"MX c #D3AC93",
"NX c #D6A994",
"BX c #DCB492",
"VX c #DEB993",
"CX c #D8B598",
"ZX c #CCB191",
"AX c #E1BA94",
"SX c #E5BD9A",
"DX c #E1B69A",
"FX c #E1BB8F",
"GX c #E4BBA2",
"HX c #D3A9A0",
"JX c #E7C19C",
"KX c #EBC3A2",
"LX c #EACAA9",
"PX c #F1CBAC",
/* pixels */
"  # 1 + 2 0 0 & 0 0 = 0 2 2 8 & o $ * * ; 4 $ $ + & > y 8 % $ = : 8 u < * : $ < < $ 1 o t * ; + + o : $ + * $ : f $ o 1 * + < o ",
"  G ! U ;XtXE.v eXqX XeXeXeXtX.X: t W f ! f.U m.8 M n.0X3./ 1.M..X.XtX9Xf.U 8 W rXU ` < rX{ f.t f c z.9Xu K K / z.f f z.z.f { ; ",
"X # v W.tXeXW.W eX}.+XqX}.}. Xn.g 8 E x.~ [ / E.M -.eXqXY I 8.qXeX/.mXeX3.B 0 3.;XU r.u M.a ' t c M.9X.X8 T / 1.` f f ' rXF z.* ",
"X s v n.mXmX.XU qXZ.+XoXoX}.-Xn.K g ] mXz.T f.n.m ..fX*XB Y D.MXmXD.CXhXE E b r.hXm.x.M .Xg .Xu p z.n. Xn.qXx.W ` U c c M.c ' * ",
"O F K n.mXmXqXB yX).,X*X=XyXaXv.m I -.mXm.g h.x.m 4.yXuXN 5.yXGXyXZ.xXxX-.Z b -.CX/.r.p .XK d.t p x.v.}.qX-Xc.Y x.E E 8 T r.` = ",
"O F U b.mXmX XA uX'.2X,X<X<X1X^.k Y e.mX0XM 8.e.N 4.uXfXN A.xXNXuX!.MXMX5.Z b -.gXeX=.k /.b. X8 i e.D.+XwXwX/.-.x.A W = <.x.E & ",
". L T x.NXmXK.E sX`.1X2X1X:X5X%Xk Z _.MXpXM 8.F.C 6.xXxX} ).NXNXsX'.CXCXw.Z Z :.lXgXe.k }.pXmXi 9 5.^.yX,XyXoXw.5.V 5.8 <.x.E & ",
". L R h.NXNXn...sX`.1X1X1X].5X<Xi Z <XcXyXm C.yX} t.xXNX6.!.sXDXfX_.CXCXZ.Z *.:.BXsX_.q yXCXMXN 7 5.^.sX<XaX%X!.*.n XXA Y 3.-.= ",
"  ! 2.8.mXCXh.8.BX2XzXkX5X2X5XzX9 n AXjXSXC oXfXb p.xXBXOX`.MXKXgX<XSXBX!.N $X:.VXdX<Xw.CXyXMXA 6 w.5.fX4X4X5XY.C n oXY i A M = ",
". { O. .eXMX3.c.BX2XzXkX5X>X5XzX7 =.kXkXJXq.fXMXb i.sXBX%X`.zXSXgX=XSXBX!.n <Xq.sX4XsX_.gXyXgX-.6 Z.v.sXsX4XdX~.| n !.:.m p p & ",
"+ ' h.m }.mX<.D.BX2XkXkXjX].>XBXw Z.kX5XjXsXPXyXn i.%XSX<X$XlXBXdX=XSXCX!.b lXi.<X<XdX$X%XaXgXw.6 }.^.aXdXdXnX(.,.n q.Z.W v v & ",
"o L  Xm v.mX<.{.BX2XkXkXkX[.&XAXq Z.BX2XkX5XDXfXn i._.KXsX%XdXBXgX=XVXCX~.b VX!.dX4XsX~._.sXgXQ.6 +X}.aXnXnXvX].y.S :.oX3.W ` $ ",
". U qX..A hXA oXBXjXsXkXjX`.2XzXN _.kX2XvXzXGXfXn !.`.KXzXsXBXBXlXsXVXJXU.b PX~.<XgX<X(.%XfX=XwX8 oX}._.*.cXbX&X(.S } +X X] 3.1 ",
". v 0X{.m v.Y *XzXjXjXkXjX(.2XzXN XXlX2XkXcXGXNX!._._.JXzXsXBXBXlXdXVXJX$XC VX&X<XdXlXsX%XfX=XwX9 /.^.Q.q.cXnX].>Xx } <X}.E 3.1 ",
". u 0XpXA E -.yXzXjXjXzXjX(.2XzXN XXlX2X5XBXCXGXMXi.].KXlXsXBXBXsXcXJXVX4X:.lXaX=XgXBX>X%XfX<XyXi v.^.:.[.vX6X(.1Xe *.=X}.E ` 1 ",
"o f qXpXe.A 5.yXzXjXjXzXjX(.2XzXN ).kX2X>XAXCXGXzXy.cXAXlXsXBXBX4XBXKXBXaXq.VX$X:.4XBX1X$XdX<XyXp 8.^.*.6XvX&XY.>Xx i.oX}.E ` 1 ",
"o L qXpXw.=.q.zXkXkXvXjXvX:X2XzXN _.5X].5XSXAXzXsX!.AXAXkXkXBXcXdXlXJXcX<X!.VXU.q.AXvX<X1XdX<X%X6 =.-.,.dXvX6X(.`.*.i.*X}.1.E : ",
". ' qXpXw.;.'.5X5XkXvX5XkX2X5XzXN XXzX>X].BXAXcX5X(.AXAX&XzXAXBXdXBXlXsX4X!.VXY.y.AXVX5X1XdX=X+X9 <.o.Q.kXbX6X(.].>.i.*X}.3.W = ",
". L K.iXC.;.<X5X2XkXvX>XkX5X5XsXb ^.BX].[.vXvXcX1X(.SXBX(.cXAXAXdXBXlXsXsXU.BX~.T.AXbXkX%XdXaXyXk 5.5.~.dXbX6X(.>X>.p.oX+Xx.B & ",
". L qXyXZ.5.$XkX>XkXkX5XkXjXjX1Xk Z.AX[.&XBXcX5X1X`.JXvX(.cXAXBXdXlXJXcXsXi.cX~.R.bXbXcX].jXcXCXB w.*X~.kXbX6X`.2X>.y.).+Xm.M & ",
"O ' {.yXXXu.$XsX`.5XzX2XvXkXjX1Xk C.vX[.5XvXkXcX>X>XJXkX~.AXVXvXsXBXAXdX5Xi.cX(.(.AXbXvX%XsXSXMXm 8.=X_.5XAX>X].jXp.t.u.wX3.W & ",
". ) D.+XXXu.$X5X[.5XzX5XvX7X5X1Xm u.kX(.kXcXsXVX].%XSXkX~.AXVXvX4XvXAXdXsXy.dXY.R.bXbXcX`.1XBX*Xk c.=X(.6XbX>X].7Xp.t.u.oX3.E & ",
"o ' /.{.XXu.$XsX:X2XkX5XAX5X5XsXN 6.sX].sXsX5XJX[.].AXsX~.AXAXvX<XcXSXzXdX,.4XU.T.vXvXvX%X%X<XoXi /.=X~.2XbX%X`.1Xi.i.6.^.3.1.& ",
"+ f.|.{.XXu.$X5X>X>XjXjXAX5X2XjXN ;.sX5X%X5XzXAX[.[.AX5X~.AXAXBX&XcXJXcXdX:.%Xq.y.nXvXvX>X1XsXQ.9 }.*X!.>XvX].`.2X!.p.6.C.r.3.& ",
"O E..XS.XX4.%XkX>X:X7XzXSX1X:X5Xi X.SXyXy.sXvXAX].].AX2X>.AXJXBX<X_.LXCXCX-.yXq.*.vXvXAX>X(.dX$X9 Q.$XU.(.kX'.i.>X`.p.6.c.v.` 2 ",
"X E.E.S.D.o.OXjX1X>X1XkXAX2X:X>X} V fXxX*.dXAXSX].].JXY.S AXVXBXyX).LXCXZXZ =X!.y.kXVXvX5X`.sX=Xi e.&XU.[.vX%X~.>X'.p.u.c.x.3.1 ",
"@ N.9XS.c.X.,XjX5X2X>XjXvX2X:X%X=.9 oX%X} zXBXBX(.(.AXy.S vXvXBXyX).LXCXgXN oX4X].5XAXvXkX$X5X4Xq Q.aXU.Y.kX%X'.>X!.p.H.C.<.3.t ",
"X ) 9X<.7.XXuX,X5X5X1X5XkX2X:X`.;.k @XA.} AXBXsXT.Y.jX(.>.jXcXBXyX).LXCXhXb ^.BXsX>XAXcXkX>XdX4Xb $XaXU.U.kX:X`.:Xp.p.'.C.R f.u ",
"X s / I V fXuX1X1X1X1X1X1X%X%XlXu.6 *Xi.Z KXBXSXSX(.5X(.} 5XzXSX%X).LXCXaXq oXBXlX`.kXcXcXsXsXdXb Z !.Y.`.5X%XOX%Xy.t.).A.E 1.< ",
"O > p I V NXuX1X1X1X1X1X5X>X%XBXo.q XX6.;.KXBXBXSXi.i.(.} 1XkXSX$XoXLXCX;Xb dXzXzX<X>XzXlXsXsXdXb b ,.(.>XxX<X%X:Xi.p.'.A.Y / : ",
"# - M V l NX,X1X1X1X1X1XkX1XjX!.k V Z.o.A.KXBXzXAX(.C %XC >XdXAX%X_.LXCXw.N cXlXlXlX_.lXcX>Xq.Q.N C !.sXsXxX,XOX].y.t.).F.Y W * ",
"  F z.y l NX,X1X1X1X2X1X1X>X>Xi.7 o.6.C $XKXcXsXcX[.:.(.C >XsXVX<X!.VXKX-.b xXsXsXBX_.dXsX<XZ w A -.U.sX<XlX%XOX`.q.6.A.XX..E * ",
"  ! z.M k fXuX1X1X1X1XkX:X].1X:X7 =.,X} ].SXcXjXcXY.].y.7 e n C *.q w 7 & N sX4X%XlX<X<X=XsX$X} A 5.Q.dX5XlX,XoX).A.o.A.XXB v o ",
". F ( 7. .yXOX2X1X1X2XkX].].jX%X6 ;.xXy.>XAXkXkX5Xi.].(.*.,.(.%X$X%X~.U.Z k dXsX%XlX<X<XsX<X=X_.n w._.dX<XlX*XoXXXF.o.p.5.B ` $ ",
"  ! ( k.4.OX`.1X1X5X2XkX].~.kX2X9 6.zXy.>XAXjXzXAX!.1XsX~.%X`.kXgX_.4XcXQ.9 <XdX%XlX<X<XdX<X*X<Xb !.yXxX<XfX%XXXXXF.o.p.).{.1.: ",
"O ! Q S.<.OX:X1X1X5X>XkX>Xy.sXjX6 6.zXy.6XvX5XcXBX%XzXkXy.sX!.sXzXp.(.4Xe.9 _.dX%XlX<X<XsXsX*X_.q oXxXxX<XsXoX^.XXF.o.p.@XD.1.: ",
"@ ! P 2.4.XX:XjX>X2XsXxXsXq.'.sX9 Z.sXY.5XAXvXAXcX`.kXsX| !.sX%XCX_.&X4Xe.9 %X<X%XgX<X=X<X<X*XZ.7 A.uXyXoXuX+X^.@X4.;.'.XX8.1.$ ",
"X ! Q J.c.^.OXjX>X:X1XxXsXq.!.sX=.;.jX(.2XvXkXBXzX`.sXsX} } i.!.<X^.!.!.v.q %X<X%XfX=X=X*X=X%X^.q !.yXuX!.OX@XfXuXu.>.'.6.c.1.* ",
"O ! P |.^.u.`.jX>X`.:XzXsXq.y.xX^.Z jX(.].kX5XzXzX(.sX5X*.!.Y.%X_.$Xy.:.}.k =X<X$XfX=X*X*X*X*XXXk !.*XuX^.fX*XXXOX^.6.} N v.f.: ",
"@ ! L |.#X9.'.jX,X'.OXzXsX6.6.xXF.V uX'.[.jX5XkXkX!.1X<X:.i.!.%X_.aXi.*.*Xm =X=X$XfX*X*X*X*X%X+Xn Z.@XyX+X,XXXoXuXOX6.o.q v.z.> ",
"; { L S.#X6.A.uXuX`.OXuXuX:.;.<X).q *XOX$X<X].kXdX`.sXfXq.i.xX^.XXyXdXsX*Xi XX=X^.fXMXCX^.XX+X^.b w.^.*XA.,XF.XXfXXX4.c.h.2.s.> ",
"; { J b.wX6.6.uXyX).OXuX*Xq.5.yXXXq *XOX$X<X$XkXdX_.yXfXi.i.xXoX^.*XsXsX+Xk $X*XZ.hXfXNX^.XXoXZ.k C.^.^.Z.yX^.).uXXX4.8.g.P ( < ",
"; { H j.iXw.;.uX,X).).yX).Z.6.yX{.q *X@X@X<X$XdXsX^.yXsX!.Z.xX*Xw.oXsXdX+Xm =X%Xv.wXyXfX+X#XXXw.k Z.F.C.C.uXXXF.yXXX4.<.#.g K ; ",
"3 { M h.wXF.5.,X,X!.).,XZ.^.w.yX{.q *XoX@X<X].dX<X!.*XyX^.i.xX*X5.^.4XfX{.m yX$X8.+XwXpXwX+X{.9.k F.F.9.u.fX#XF.@XXX7.X.O.l ( > ",
"+ F J 7.#XC.4.A.,XA.A.).oXOX9.XX^.q XX).).<X_.sX<X!.*X,X+XZ.xX*Xw.Z.lX=X{.m yX+X..@XwX+X{.8.{.X.V F.XX9.u.iX#XF.yXXXj.O.d.T H ; ",
". L M O.F.C.4.^.OXF.F.).XX,X5.F.^.q XX^.^.<X_.<X$X!.*X@XoXw.sX*Xv.v.dX<XD.m +X^. .wXwX+XwXD.{.<.k XX@X4.t.yXXXF.@XXX9.$.d.P c - ",
"+ ! / R D.XX9.).).).).XXXX*X9.C.A.9 F.F.A.yX_.&X^.Z.*X^._.:.*X*XC.8.<X<XD.m Z.w.Y iX|.+XeX|.|.<.i XXyX9.9.3XH.C.@XF.7.R 1.K h % ",
"+ F d.l k XXC.F.F.).XXXX^.XXA.9.D.9 ^.F.C.uXoX%X!.Z.%X!._.=.%X*XD.8.yXfXD.B e.w.Y fX{.wX+Xc.D.8.k Z.@XF.0.@XF.C.XXG.<.I O.J h % ",
"+ ! d.$.m j.D.D.F.C.XXF.F.).@XF.c.9 C.0.u.yXoXi.^.^.i.).oXo.Z.yXc.+.fXpXK.m +...8.pX|.qX+XD.D.Y k D.XXC.0.XXF.t.XXC.7.I R K H % ",
"o L d.g.7. .S.S.S.C.XXF.F.F.#XC.Y 9 C.4.u.*X^.v.^.^.w.oX^.N oXyX8.m mXHXb.p R h.b.pX|. X+XD.D.Y p v.XXC.4.XXF.9.F.9.7.R @.~ P ; ",
"o F d.b.j.k  .b.S.B.L.F.XXF.L.7.8 i 9.3Xu.oXZ.v.oXZ.9.@X+XB D.F.<.B |.h.R l ..8..XeX|.K.+XD.K.Y i v.{.t.;.H.A.9.F.X.7.R d.( ~ > ",
"+ F @.k.L.B M L.b.B.L.F.XXF.F.+.M 8 F.yXt.^.v.v.+XC.8.wX|.k i k Y k B R I i I n.K.eXK.n.+XD.K.Y i c.F.9.%.H.G.0.F. .7. .2.( ~ > ",
"* c d.h.|.+.l j.j.+.L.F.G.F.G.S.2.9 L.G.9.4.8.D.+Xb.h.0XS.p y R R h.b.L.R 8 R K.K.0X|.K.K.2.K...i v.F.B.&.G.G.9.C. .7.O.@.( ( - ",
"* c #.g.S.+.M h.j.+.L.F.F.L.G.c.<.9 S.G.9.6.e.c.|.J.g.0XK.y l L.R b.b.K.b.y M .XK.|.K.K.D.<.D.E i c.D.B.X.H.G.9.C. .<.2.( s.~ ; ",
"+ f @.2.g.O.M g.8.X.G.G.XXL.S.8.O.y j.F.B.u.w.8.n.P.#.|.b.8 I 0X+.b.l.b.J.d l P.K.K.b.K.b.O.b.R i c.A.t.%.H.C.4.G.X. .d./ f.L > ",
"+ h @.a.O.$.J g.7. .G.G.#XI.B.7.O.i j.G.B.C.w.<.j.|.O.P.h.8 $.K.#.J.l.k.O.d l b.J.S.h.L.b.O.b.I y c.A.t.4.H.B.%.G.X.R h.@.s.~ ; ",
"@ D a.a.@.Q l d. .l J.L.|.L.S.7.2.y #.G.9.w.5...L.P.2.#.g.8 P k.2.J.M.J.k.d d g.V.J.g.P.2.@.m.R p D.c.0.4.B.0.%.S.&.8 J a.) H - ",
"@ D [ a.@.P h d.I k h.L.|.S.k.7.#.y #.S.8.j.8...c.|.g.R @.t P g.@.M.l.l.P J d l.V.V.g.S.#.2.m.P t m.c.9.4.B.7.#.S.R y y a.( H - ",
"O D [ a.^ J h @.^ d R k.h.d.2.d.#.y #.J.7.c.8...h.K.2.P J d T ^ @.l.@.@.J P y d.V.#.g.l.$.2.M.K 8 h.8.<.%.j.7.+.V.l d K a.[ F - ",
"O s ) a.Q J j @.d.h l @.T ^ @.s.@.y @.M.2.h.2.R m.m./ T U t g 1.( d.^ Q ^ J t $.k.&.g.g.R d.M.H 8 f.<. .X.9.#.$.$.l y H a.[ F - ",
"X 4 _ Q ) j r Q ( h H N.d.s.a.a.N.t ) M.a.K T / 1.z./ 1.T : g f.T s.( s.z.P < Q l.l g.$.I $.d.g < T T O.+.+.^ J P l j H ) D D @ ",
"O s j Q Q t j h s.h H N.s.~ ) N.s.> H M.) j ( ( 1.1./ / T 8 c ' c ~ ~ ( P ~ > P l.z g.$.^ ^ @.h < L M I I ^ ~ l l l H h _ a 4 @ ",
". 4 a a.( t t h N.t a N.f.[ s.8X~ 3 H M.( a ) ' z.f.f.' T u L U < ~ ) L U H < L l.y &.$.#.^ ^ h * f J l d d h h j h D 3 D a 3 @ ",
". O % r t > % % a % % < a a a t 3 - t _ H > < g c u v u t : t 1 $ : < h H * o > l , 5 z J y y = o : K T g = % r t j > + ; 3 @ @ "
};
