/* XPM */
static char *_f918c733f9b4050f451825743fda9e22oJRuI2DAHtNGNkC[] = {
/* columns rows colors chars-per-pixel */
"64 64 68 1 ",
"  c #7FAA5F",
". c #7D9F69",
"X c #7DA664",
"o c #7DA961",
"O c #7FA169",
"+ c #97B74F",
"@ c #99B74F",
"# c #9CB84F",
"$ c #8FAF57",
"% c #85AD5B",
"& c #8BAE5B",
"* c #90AF57",
"= c #93AD5D",
"- c #9BAE5E",
"; c #8DB256",
": c #87B059",
"> c #8BB059",
", c #93B454",
"< c #99B751",
"1 c #99B652",
"2 c #9DB751",
"3 c #9EB357",
"4 c #99B456",
"5 c #9CB457",
"6 c #9BB850",
"7 c #9CB850",
"8 c #90B158",
"9 c #91B158",
"0 c #91B05B",
"q c #95B259",
"w c #96B358",
"e c #95B15C",
"r c #9AB358",
"t c #9AB359",
"y c #9DB359",
"u c #9CB25B",
"i c #9DB458",
"p c #9BB25C",
"a c #A1B94F",
"s c #A2AF5F",
"d c #A0B753",
"f c #A2B556",
"g c #A3B657",
"h c #A4B655",
"j c #AAB756",
"k c #A2B851",
"l c #A6B951",
"z c #A5B853",
"x c #A7B953",
"c c #A8B952",
"v c #ACBA53",
"b c #ABB954",
"n c #A3B35B",
"m c #ABB55A",
"M c #AEB858",
"N c #B3B956",
"B c #B2B75A",
"V c #B4B859",
"C c #83A564",
"Z c #8BA665",
"A c #83A961",
"S c #8CAA62",
"D c #89A368",
"F c #90A764",
"G c #94AB61",
"H c #9AAC61",
"J c #A2AE61",
"K c #A4B060",
/* pixels */
"%%%%%%&9qy52####alcvvck2<9>%%%% %%&>qti57###alcvvcl2<9;%%%%% %&>",
"%%%%%%>9qti226677kccclk2<,;&%%%%%%>9qti52##67klcclk2<,;>%%%%%%&>",
",;;;>>9qtty55<<<<2ggllk7<<,99;;>>>9qttyi5<<<<25gllk7<<,,;;;;>>99",
"@<<,99qttppy44,99q45gd77#@+<++<,99qtypptt4,99q455d77#@+<<++,99qq",
"<<,999q5tqeqq99>>9q,<<26#@<<<<,999qtiteqq99>>;9,4<2##@<<<<<,;9qq",
"*$$$$*q54q9>>>>&&>9,<<<<<<99*9$$$*q45t9>>>>&&>99q<<<<<,9***$$*9q",
"=====q3hgyt9999999q9999999**=***=qtghiq999999999999999*===*===t5",
"----nnmBBmgg555ggg3q*&&&&==HH--snnmmBmmg5<5ggg3q=*&&&&=-----nngm",
"JJJnmmmBVVBjlllcbjgy=&SSZFHJJJJnmmmBBBBjlklcbjhy==SSFFGHJJJsmmmm",
"HHnngggnnmmjcllcvjgn-----HHHHHyngggnnmmjlllcvbmn-----HHHHH-ngggg",
"G=ti54qqepnhclklcjmnnngggny-==ei54tq=pnhllllcjmnnngmgnyp==et55tq",
"&&9q99>>9q4dkk2ddhhhgghgitq9&&>9q99>>q45kk7kkhhhhgghnyq9=&&9q99>",
"%%&&&&>;99<<<<<<<2dd7224q9>$&%&&&&>;99,<<<<<<2dkk724q9>>&&&&&>>>",
"%%%%%%>;;9,,,9999<27#724q9>>&%%%%%>;;99,,,999,<7#724q9>>>%%%%%:>",
">>%%%>>;;;>>%%%%%>,<kllhniq9;>%%%%>;;;;>%%%%%>,<7llhgit9;>>%%%>>",
";>%%%&>&&&%%%ooo%%;4kjNNMh5q9;>%%%&>&&%%% oo %>,djNNbjgt9;>%%%>>",
"&%%  %%ACCCCCCCXX%94lbNVbh5,;&%%  %%ACXCCCCCXA$4hbNNNj5,;&%%oo%%",
"%% XXXXOO.OCCZZCC&qgjNNVbd<,>% oXXXOCO.OCZDDCS*gjNNNbl<,;%%oXXXX",
">&%AACCDDDZFGHHGG-nhbbNNbk<<;&%%ACCDZDDZGGHHGHyhjbNNbl2<9>%%ACCC",
",,9>&FHJJJJnnmmmmmmbjvbbcla@<,9>&FGHsJJJnmmmmmmbbjbbvlk#<<99&GGG",
"@<<4tynmmmmmmBBVVVVNjccclk7#@<<4tynmmmmmmBBVVBVNbccjck77#<<,tynn",
"<<<2gghjjjhljccbNNNbbcjl544<<<<2gghjjjhhjccbNNNNbcclg54<<<<22ghh",
",<<7lllkk22227klcjjjclh54999,<<2kllkk222227kljjjcchg4q999,<2klll",
";;,2lcl2<<<<<<<<55ddk54,9>>>;;,2kcl2<<<<<<<<255ddd5,9>>>>;94klll",
"&&9tghg,9;;;;,<,99,<<,9;;>&%%&9tghg49;;;9,,,999,<<9;>>>&%&>qghgg",
"$*==yny9>>>>>;;;>>;,,9;&&&&&&$*=tyyq>>>>>>;;>>;;,9;&&&&&&$*=pyyy",
"yy=FF===&&%%%%%&>>;;99*$&&**tt-FFG==&&&%%%%%>>;;999$&&&*qt-=FF==",
"gnGSZSS=&&&&%%%&>;99qq=====-yn-FZSF=&&&&%%%%>;999qq====tyn-GZZFF",
"y-GSS==ptq99;>&>9q44ttt--=-yyyGFS==etq99;>&&9qt4tttp-=-yyyHFSF==",
"G=GS=qtini5<<99qt55ggnnnypyyp=GSG=tin554<,99t55gggnyyypp-=GSG=tt",
"&&&&&9qinng2<<,45ghhhhggitqe=&&S&*qtngg2<<<45ghhhhgg5tte=&&&&=qq",
"&&%%%&9qyig27#<27lcjjjl2<9;>&&&%%&>qting7#@#7kcjjjl2<,9$&&&%%&>9",
";>>%%&>qtyi52<<<<dljjlk7<,;;>;>%%&>9qty52<<<<2dlclk7<<,;>>;>%%>>",
",,,;;>9qqeett,q99q45gd7##+<,<<,;;;99qeeqt4q999,45d7###<,,<<,;;99",
"<<<<99qtt9=eq99>&>9,,<<<##@<<<<<,9qqte=9qq9>>>9q,<<6##@<++@<,9qq",
"999999t5iq9999>>>>9,<<<<<<,q999*99q55t9999>>>>9q,<<<<<,q9999*9qt",
"&&&===yhhit999999qt,<,,,99*&&&&&=*tghnq99999qqq,,,,,99**&&&&==tt",
"GGG--ygjjgn4444435tt9*****==G==--ynjbmn54,,455ttq9****==G===-ynh",
"KnnnmmmBBBmlkkklhhyt===G=GHJJJnmmmmmBBmjlkkkhhnt===FFGHJJJsnmmmm",
"Knmmmmmmmmmbcllcvjn-=GGHGHHKKKnmmmmmmmBbcllcvjgy-=GGGHHJKKnmmmmm",
"G=pyyytppnnllllccjmnyyyyy--HGGpynitppyghllllcbmnnyyny--HHG=ynntt",
"A&$99>>&&9t5kkklljjjhhhggte&&&&9q9>&&9t5kkkkljjmhhhhgtq&S&&>q9>$",
"%%&>>>>>;9,<2<<22ghlkkd54q9>&%&>>>>>>9,<<<<<2dhhlkkg5q9>&&&>>>>>",
">>&&&>;,,<<<,999,<27#724q99;;>&&&>;9,<<<<,999<<77724q99>;>>&&>>;",
">>%%%%>;;;;;>&&%&;<67kggtq99;>&%%%>;,9;;>>%%&;,<7kdg5tq9;>>%%%>>",
">>%%%%%&&%%%%    %;<kjbMmnt9>>%%%%%&&%%%%  o %><djbbmntq;>%%%%%%",
":%%%%%%%%%CXXXXXX%>4hNNVNh59>%%%%%%%%ACXooXXX%&,gbNVBj5q;&%%%%%%",
"%%%ooXCCCCCCZSSZC&q5jNNVbh5,;%% oXXCCCCCZSSZAS95lbNNNj5,;&% oXXX",
">%% XXCDDDDZFGHGG-yhjNNNjk<<;&%%oXOCZDDZFGHHGGyhjbNNbl2<9>%%oXOO",
"9;>&SSSGHGHHsnnnJnmbbbNNck7<<;>&&SZFHHGHsnnnnnmbbbbNbl7<<9>&&SSZ",
"@<<,tpnmmmmmmmmBBBVBbbbbclk##<<,tpynmmmmmmmBBBVVNbbbclk#@<<,qtyn",
"@<22ghjbbbbbbbbNNNNNbcjlg22<<<<2ghgjMbbbbbbNNNNNbjjlld2<<<<2dhmm",
",<<klljllkddkklccbvcclg5q999,,<2lljlhdddkkllcbvcclg54q999,<2lcjj",
";9,2lll2<<<<<@#77kkkkd4q9$&>>;,5llld<<<<<<<77kkkkd5q9>&&>;94llll",
">>94gg5,99;;9,<,,,<<<<9;>>&&&>945gg499;;,,,,,,,<<<,9>>>&&>;qgggg",
">>*qtyt9>>>>>;;;>>;;,,;;;;>>&$*qtytq>>>>>;;;>>;99,9;;;;>&&$=tytt",
"tq===-==$&&&&>>&&>;;99>$$**99q===--=$&&&>>>>>>;;999$$$*99q=====-",
"gnHFFGG==$&&%%%%>;999q=====pyn-GFFG==&$&&%%%>;999q=====pyn-GFFG=",
"gnHFSFG=e99>>%%&9q,qtt--GG-ynnHFZFG==q9>>>%%>9,,tt--=GH-nnHGZSG=",
"e=SSS==tttq,,;>9t45553yyp=---=GSS==tttq,,;>>q45555yyt----=GSSS=e",
"&SSS&$qt5i5<<<,45ghhhgg5tqe=&&SS&$qti554<<,,5gghhhg55tq==&%S&&9q",
"&&&&&>9ting27<<<2dhjjlk24,99>&&&&>9tingg76<<2kljjjl2<4q9$&&&&$9q",
";;>>&>9tynngk7#72kljjcl7<<9;;;;>&>9qynngk7#67kljjclk<<9;;;;>&&99",
",;;>>>9tynggk7###kcjbcl7<,;;;,;>>>9qynghk7###klcbclk<<,;;9;>&&99"
};
