/* XPM */
static char *_dc464de139c4890ff7bcffe88da134bj7lGMDK0SygWxOXK[] = {
/* columns rows colors chars-per-pixel */
"64 64 224 2 ",
"   c #151612",
".  c #1B1B16",
"X  c #1D1E19",
"o  c #1F2017",
"O  c #1F201A",
"+  c #22231D",
"@  c #2A271F",
"#  c #252621",
"$  c #272822",
"%  c #2A2C24",
"&  c #2E2F28",
"*  c #302F27",
"=  c #2E3027",
"-  c #2F3029",
";  c #313227",
":  c #33342B",
">  c #38372D",
",  c #36382E",
"<  c #39392F",
"1  c #373730",
"2  c #373931",
"3  c #3B3D33",
"4  c #3D3F35",
"5  c #483E15",
"6  c #433D24",
"7  c #403F32",
"8  c #3F4034",
"9  c #3F4135",
"0  c #3E4139",
"q  c #4B4017",
"w  c #4B421A",
"e  c #4C4B28",
"r  c #514824",
"t  c #414235",
"y  c #414236",
"u  c #4D4E33",
"i  c #424439",
"p  c #43453A",
"a  c #46493E",
"s  c #4A4B3E",
"d  c #4F503F",
"f  c #53523C",
"g  c #605C38",
"h  c #676738",
"j  c #73723D",
"k  c #464940",
"l  c #4A4C40",
"z  c #4A4E45",
"x  c #4D5144",
"c  c #4E5146",
"v  c #4E5349",
"b  c #505345",
"n  c #53564A",
"m  c #5C5E4A",
"M  c #5F604D",
"N  c #747345",
"B  c #666954",
"V  c #696B50",
"C  c #757759",
"Z  c #757961",
"A  c #757862",
"S  c #9A4D2C",
"D  c #985A27",
"F  c #9B522D",
"G  c #9F5331",
"H  c #A15732",
"J  c #A96E24",
"K  c #B5752B",
"L  c #C57D1E",
"P  c #C76E2F",
"I  c #C8782C",
"U  c #D27926",
"Y  c #D5772A",
"T  c #D57929",
"R  c #D97B2D",
"E  c #D46D36",
"W  c #D46E3A",
"Q  c #CC7434",
"!  c #CC7C33",
"~  c #D47635",
"^  c #D97737",
"/  c #D37A35",
"(  c #D57B3B",
")  c #DB7D3E",
"_  c #E17C36",
"`  c #E17D39",
"'  c #DE7D41",
"]  c #E07F43",
"[  c #BA8123",
"{  c #C4891F",
"}  c #DAB51E",
"|  c #C8862C",
" . c #D58326",
".. c #D48827",
"X. c #D98529",
"o. c #DE9A2E",
"O. c #CA8A34",
"+. c #D68638",
"@. c #DC813E",
"#. c #D59938",
"$. c #E1803A",
"%. c #E49F30",
"&. c #C4A72B",
"*. c #D5B42C",
"=. c #C7AA32",
"-. c #DAA635",
";. c #E4A12E",
":. c #E0AC2A",
">. c #E3A232",
",. c #E4AD31",
"<. c #EFBC34",
"1. c #EDBA39",
"2. c #F0B835",
"3. c #D6C92E",
"4. c #D6CC39",
"5. c #EAC829",
"6. c #ECD32C",
"7. c #EEC637",
"8. c #F1C63C",
"9. c #ECD635",
"0. c #F1DD31",
"q. c #EFE33A",
"w. c #F1E43D",
"e. c #B0924F",
"r. c #A5A469",
"t. c #DE8643",
"y. c #DC9B45",
"u. c #E58647",
"i. c #F28E4B",
"p. c #E89548",
"a. c #F1914D",
"s. c #DAA442",
"d. c #D2BA47",
"f. c #D8BD57",
"g. c #E6B648",
"h. c #E5B352",
"j. c #D3CC53",
"k. c #DBD258",
"l. c #EBC647",
"z. c #ECD648",
"x. c #F1D648",
"c. c #E9C153",
"v. c #F0CC58",
"b. c #EDDA57",
"n. c #F6D757",
"m. c #EEE746",
"M. c #F2EA49",
"N. c #EEE556",
"B. c #F5E75B",
"V. c #F0F152",
"C. c #F3F259",
"Z. c #CED07A",
"A. c #D2D174",
"S. c #E0C867",
"D. c #F6CB64",
"F. c #F8DA66",
"G. c #ECE363",
"H. c #FCE463",
"J. c #F3EB63",
"K. c #F7E969",
"L. c #FDEB6B",
"P. c #EFF16A",
"I. c #F3F563",
"U. c #F4F56D",
"Y. c #FBF26B",
"T. c #F7E877",
"R. c #FCEE75",
"E. c #F4F373",
"W. c #FAF474",
"Q. c #F4F57C",
"!. c #F8F67B",
"~. c #B3B68A",
"^. c #BEC19B",
"/. c #BFC2AC",
"(. c #C1C388",
"). c #CFD18A",
"_. c #D7D789",
"`. c #C2C394",
"'. c #D4D599",
"]. c #F5F582",
"[. c #F8F686",
"{. c #F4F68B",
"}. c #F5F88D",
"|. c #F4F694",
" X c #F9F696",
".X c #F5F894",
"XX c #F5F69C",
"oX c #F5F89C",
"OX c #C1C5A5",
"+X c #C2C6AC",
"@X c #D2D2A4",
"#X c #D7DBA7",
"$X c #D4D3A9",
"%X c #C1C4B4",
"&X c #C4C6BA",
"*X c #DADDB0",
"=X c #F4F7A4",
"-X c #F4F8A4",
";X c #F6F6AB",
":X c #F4F8AC",
">X c #F9F8AC",
",X c #F6F7B4",
"<X c #F5F8B4",
"1X c #F6F7BA",
"2X c #F6F9BC",
"3X c #F9F8B8",
"4X c #F6F6C3",
"5X c #F9F7C4",
"6X c #F5F9C4",
"7X c #F8FAC5",
"8X c #F7F6CA",
"9X c #F9F6CC",
"0X c #F6F9CB",
"qX c #F9FACC",
"wX c #F7F7D0",
"eX c #F6F9D4",
"rX c #F9FAD4",
"tX c #F6FADB",
"yX c #F9FBDC",
"uX c #F6FBE3",
"iX c #F9FBE4",
"pX c #F7FBEA",
"aX c #FAFCEC",
"sX c #FBFCF3",
/* pixels */
"k i t 9 9 9 3 , - X # a s i i i 4 < : : $ X 3 l i i i 9 , : # X 4 l i i i 9 , : # X 4 l i i i t 2 , : & . % a i t 9 9 9 3 , : + ",
"9 3 2 , : - & % # . # a a t 7 t 9 2 : : # . 3 l t 7 t 3 : : # X 4 l t 7 t 3 : : # X 4 s t 7 t 9 3 , : & . $ 4 4 2 , : - & & # X ",
": : : = % $ # + .   + i a t 9 9 9 3 > : # . 1 a i t 9 3 > : # X 3 a i t 9 3 > : # X 3 a t t 9 9 9 < : & . + : : : - % $ # + .   ",
"i i i i i 0 4 2 % . + 3 t 9 4 2 1 , : & + . : t t 4 3 , : & + . , i t 4 3 , : & + X , t t 4 3 1 , : & # . % 0 i i i i 0 4 1 $ O ",
"c c c b c c z i , + # i z c c c z z a 2 $ O 3 z c c c c i , + + 0 z c c c l i : + $ i z c c c z z i 1 # + 0 z c b b c z k 4 % + ",
"c z c b b c z a , + + i z c b b c z k 3 $ X 3 z c b b c a , + + 0 z c b b c a , + # i z c b b c z s 2 + O 4 z c b b c z l 9 % + ",
"s a a a i i t 4 , + + t a i i i i t 4 , $ . 3 s i i i i 4 , + + 9 a i i i t 4 : + + i a i i i i t 4 , # X 4 a a a a i t 9 2 % + ",
"b a i i i 4 2 , : + + i s t t t 3 2 , : # X 4 s i t t 3 , : + + i s t t t 2 : : + # a s t t t 3 < , : # X 9 s i i i t 2 , : % O ",
"b i t t t 3 > : : + + i a i t 9 3 : : : # . 3 s i t t 3 : : + + 0 a i t 9 < : & O # a a i t 9 3 : : : + O t s t t t 4 2 : : $ O ",
"c i t 9 t 9 3 , : + + i s i i i 4 , : : # . 4 l i i i 4 , : + + i l i i i 3 : - + # a a i i i 4 , : : + X 9 a t t 9 t 9 < : $ X ",
"a t 3 3 , , : : % X + i s t 7 t 4 2 : : # . 9 s t t t 3 : : + + i s t t t 2 : - + # a s t t t 3 < : : + X 2 i 9 3 < , , : & + . ",
": : - & # # + O .   O i a t 3 9 t 3 > : # . 3 a t t t 3 , : + + 0 a t 9 9 3 : & O # i i t t 9 t 3 > : + . $ : : = $ # + + X   . ",
"i i i i i 0 4 2 % . O 3 t 4 3 , , , : & + . , i 9 3 2 , ; & X X 2 t 4 3 < : ; % X + 4 t 3 3 , , , : & + . : t i i i t 0 3 : + . ",
"l a a a a i t 4 , + O > t t 9 3 3 2 : : & & 2 t t t 4 2 , : & & 3 t t t 4 2 , : & : 4 t t 9 4 4 2 : : & = t s a a s i t t 2 % + ",
"b i t t t 3 < , : + t r.Z.(.(.(.`.`.`.^.^./.OX+X%X%X%X%X/./.%X%X%X&X&X&X&X%X%X%X%X%X%X%X%X+XOXOXOX^.^.~.~.B s t t t 4 2 , : % O ",
"c i t t 9 < : : & + u _.>X>X,X2X2X7XqXqXrXyXyXuXiXiXpXaXaXaXsXsXsXsXsXsXsXsXsXsXaXpXpXpXiXiXyXyXrX0X6X6X#XA a i t 9 3 , : : $ O ",
"c a i i i 3 , : : + f '.,X3X2X6X6X8XqXrXeXtXuXuXuXuXpXpXaXaXaXsXsXsXsXsXsXsXsXaXpXpXpXpXpXuXtXtXeX0X0X4X#XA s i i i 9 , : : $ O ",
"b i t t t 3 > : : + s '.3X1X6X6X6X0XrXrXtXtXuXuXpXpXpXaXsXsXsXsXsXsXsXsXsXsXsXsXaXaXpXpXiXpXuXtXtXeX0X6X#XA s t t t 4 2 : : $ X ",
"c i t 3 t 9 3 : : + s '.1X5X4X8X8X0XrXeXtXuXpXpXpXaXaXsXsXsXsXsXsXsXsXsXsXsXsXsXaXaXpXpXiXpXpXuXtXeX0X6X#XA a t 7 t t 9 > : $ X ",
"s t 9 3 2 2 , : & X s @X5X5X8X8X0XwXrXtXtXpXpXpXaXaXaXsXsXsXsXsXsXsXsXsXsXsXsXsXsXaXaXpXiXiXpXuXtXeX0X6X#XC i t 3 3 2 , : : # . ",
": & & & % % # + .   s @X5X5XqX0XwXeXtXyXuXiXpXpXaXaXsXsXsXsXsXsXsXsXsXsXsXsXsXsXsXaXaXaXpXpXuXuXtXtXwX6X@Xm & - & % % $ + X . . ",
"9 4 0 t 0 0 3 , $ . s @X9X9XqXwXwXeXtXtXuXiXiXpXpXaXsXsXsXsXsXsXsXsXsXsXsXsXsXsXsXaXaXaXpXiXpXuXtXtX0X6X$XB 3 0 0 t 0 3 2 & + . ",
"l a s s s i i 9 , + d @X9X9XwXwXeXeXtXuXuXiXiXiXpXaXsXsXsXsXsXsXsXsXsXsXsXsXsXsXsXaXaXaXpXpXpXuXtXtX0X6X#XC a a s s a i t 2 % + ",
"c a i i i 7 2 , : + d @X9X9XwXwXeXeXtXuXuXiXiXiXpXaXsXsXsXsXsXsXsXsXsXsXsXsXsXsXsXaXaXaXaXpXpXuXtXtXwX8X*XA s i i i t 2 , , % O ",
"b a t t t 3 > : : + s $X9X9XwXwXeXtXtXuXpXiXiXiXpXaXaXsXsXsXsXsXsXsXsXsXsXsXsXsXsXsXaXaXpXpXuXuXtXtXwX0X*XA s t t t 4 2 : : $ X ",
"c i t 3 t 9 3 : : O d $XqX9XwXwXeXtXuXuXiXiXiXiXpXaXaXsXsXsXsXsXsXsXsXsXsXsXsXsXsXsXaXaXpXpXiXuXtXeXwXqX*XA a t 3 t t 4 > : $ X ",
"l i t 3 3 3 , : & X s $X9X9XwXwXeXtXuXuXiXiXiXiXpXpXaXaXsXsXsXsXsXsXsXsXsXsXsXsXsXaXaXaXpXiXuXuXtXeXwXqX*XA i t 9 3 3 2 , : # . ",
": : - & % % # + X   s $X9X9XwXwXeXtXuXuXuXuXuXiXiXiXpXpXaXaXaXsXsXsXsXsXaXaXsXaXaXaXpXpXiXuXuXtXtXwX0XqX$XM & : & % % $ + O . . ",
"3 3 4 4 4 3 1 : # . s $X9X9XwXeXeXtXyXuXuXuXuXuXiXiXiXpXpXpXpXaXaXaXaXaXpXaXaXpXpXiXiXiXyXyXtXeXwX0X8X6X#XB 1 3 4 4 3 3 , % O . ",
"l a s s k i i 9 , + b $X9X9XwXwXeXeXtXyXtXtXtXyXuXuXuXiXiXiXiXiXiXiXaXaXaXpXpXpXiXiXuXuXtXtXeXwX8X6X6X2X#XC a a s k s i t 2 % + ",
"c a i i i 4 2 , : + s @X8X8X9XwXwXwXrXtXtXtXtXtXtXyXyXyXiXuXuXuXuXuXuXuXuXuXuXuXuXyXyXtXrXwX0X8X6X6X2X<X#XC s i i i t 4 2 , % + ",
"b a t t t 3 > : : + s @X4X4X8X9X0XwXrXwXrXeXeXrXrXrXtXtXtXyXyXyXyXyXyXyXyXyXyXtXtXrXrXwX0X8X6X6X2X2X<X,X'.C s i t t 9 2 , : $ X ",
"c i t 3 t 9 3 : : O s '.1X4X4X5X7XqXqX8X8X8X8X8X0X0X0XrXwXrXrXrXrXrXrXrXrXrXrXrXrXqX0X0X8X6X6X2X<X,X:X:X'.C a t 9 9 9 3 > : $ X ",
"l i t 9 3 3 2 , : X s '.,X3X1X2X2X2X2X2X2X2X2X2X2X6X6X7X6X8XqXqXqXqXqXqXqXqXqXqX0X8X6X6X6X2X2X<X,X:X:X:X'.C a i t 3 3 3 < : $ . ",
"l a i t 9 2 , : : O u ).=X=X;X;X;X;X;X>X>X-X-X-X>X>X>X>X,X<X2X2X2X6X7X7XqXqXqX8X6X6X6X6X2X2X<X,X>X-X=X=X_.C a i i 9 3 , , : $ . ",
"3 , : : & $ + + X   u Z.XX|.XXXXXXXXXXXX|.}.}.}.}..X.X XoXoX=X-X>X,X2X6X7X7X5X6X6X2X2X2X<X<X>X>X-X=XXXXX_.V , , : = % # + + . . ",
"3 3 3 3 1 : : & +   u A.{.{.{.}.|..X.X[.Q.E.E.E.E.E.!.!.].[.}..X|.=X>X,X2X2X2X2X1X1X<X<X<X>X:X-X=X=XXXXX_.V 1 3 3 2 , : : $ . . ",
"l a k k k a i 9 , + u A.Q.Q.].].].[.[.E.J.N.C.C.I.I.I.U.U.U.E.Q.].{.|.XX=X;X,X<X,X,X;X:X:X:X-X=X=XXXXX X_.C a a k k k i i 2 $ + ",
"c a i i i t 3 , : + e j.E.E.Q.Q.Q.!.E.N.z.m.m.M.V.V.V.C.C.C.C.I.P.E.Q.{.|.XX=X;X;X=X=X=X-X-X-X=XoXoX X X_.C a a i i t 4 2 , % + ",
"b a t t t 3 , : : + e j.P.U.E.!.!.W.J.z.4.9.9.w.w.m.m.M.M.M.M.V.C.J.P.E.Q.{.|.|.|.|.XXXXoXoXoXoXoX X.X[.A.C s i t t 9 2 , : $ o ",
"c i t 7 t 9 2 : - + r j.B.J.W.W.W.Y.N.4.} 3.5.6.0.0.q.q.w.w.w.m.m.N.N.B.J.K.T.T.T.Q.].}.|.|..X.X}.[.].!.A.C a t 3 t 9 3 > : $ . ",
"l i t 9 3 3 2 : - X w =.N.J.Y.W.W.L.b.*.} } } 5.6.6.6.6.9.9.9.9.9.x.x.N.N.N.N.b.G.G.K.T.].{.}.{.].Q.U.I.k.N a i 9 3 3 3 < : # . ",
"3 , , : % $ # + O   5 &.z.B.L.Y.L.B.z.*.:.:.:.<.7.5.5.5.7.7.7.7.8.x.x.x.x.x.z.z.z.b.b.G.T.!.].Q.E.U.I.C.j.h , , : & $ # + + . . ",
"2 1 2 , : : & % +   5 &.x.B.L.L.H.v.1.,.:.:.,.2.2.<.<.<.<.<.<.<.1.8.8.8.8.8.8.l.l.l.l.v.F.R.!.W.U.I.V.M.4.h 1 1 1 , : - & + . . ",
"s a k k k a i t : + q &.x.B.L.L.n.g.-.o.o.o.o.%.>.;.;.;.;.;.;.%.;.>.>.>.;.;.>.>.>.>.-.-.c.F.R.W.U.I.V.M.4.j a k k k k i i 2 $ + ",
"l i i t t t 3 2 : + q =.x.H.L.H.l.-..... . . .X.X.X.X.X.X.X.X.X.X.X. . . . . . . . .....#.c.T.R.E.U.C.M.4.j s i t t t 4 2 , % o ",
"b i t t 9 < : : : + q =.n.H.L.n.-.{ L U U T R R R R R R R R R R R Y T Y Y Y T T T U U U | y.D.T.W.W.I.V.4.N a t t 9 3 , : : $ . ",
"c a i i t 3 : : : + q =.n.H.H.v.-.| U / R ^ _ $.$.$.` ` $.$.$.` ` ` ` ` ` ` _ _ _ ^ ^ +.+.+.h.D.T.W.Y.C.j.N s i i i 9 , : : $ . ",
"b s i t t 3 , : : + q =.B.H.F.c.s.p.p.p.a.a.a.a.a.a.a.a.a.a.a.a.i.i.i.i.i.i.i.i.i.i.a.a.p.p.y.h.F.R.Y.C.j.N s i t t 9 2 , : $ . ",
"c i t 7 t 9 2 : : + w d.B.H.v.#.| O.+.@.@.@.@.@.@.@.@.) ) ( ( ( / / / ~ ~ ~ ~ ~ ~ ~ / / / Q I | h.T.R.L.k.N a t 7 t 9 3 , : $ . ",
"l i t 9 3 9 3 , : X r f.H.F.g.[ K K P P P P P Q Q Q Q Q Q Q Q / / / / / / ~ ~ ~ ~ ( ( ( ( ( ! | s.D.L.L.k.N a i t 3 4 3 < : $ . ",
"< , , : - & % $ + . r f.H.D.s.K I ! Q / ( ( ( ( ( ( ) ) ) ) ) ) ) @.@.@.' ) ) ) ) ' ] u.t.t.t.+.#.g.D.L.k.h , , , : & & $ + X . ",
": : : : : : & $ O   r f.F.h.O.I ! ( ) ' ' ' ' ] ' ' ' ] ' ' ' ' ' ) ' ' ' ' ' ' ) ' ' ' ' ' ) @.+.#.g.F.S.g - : : : : - % + . . ",
"s a k k l k i 9 : + e f.D.y.I P P Q W W ~ W W W W W W W W W W W W W W W W W W W W W W W W W E ~ Y I #.D.S.N a a k l k i i 2 $ . ",
"i t t 9 4 2 1 : & O 6 e.e.K D F F F F F F F F H H H G F F F S S G H H H G F F S S S F G G G F F F D J e.e.f t t t 9 4 2 , : # . ",
"a k k a a i t 3 - O $ i l l s s s i i > $ + 2 s l l s s i > $ + 3 l l l s s i > @ + 3 s l l s s i i 3 * + & i k k s a i t 4 - + ",
"c v n n n v c a , + $ a c n n n n v l 4 $ X 3 c v n n n l 4 $ O 4 c v n n n l 3 $ O 3 c v n n n v c i : X - l v n n n n v l , # ",
"a k s s s i i 9 : + + t a a s s a i t < $ . 1 a a s s a t < $ X 2 s a s s a t , $ X 2 a a s s s i i 3 = . % i a s s s i i 9 , + ",
"l a i i i 4 2 , : + # i a t t t 4 2 > , $ X 2 s i t t 4 > , # X 4 s i t t 4 > , $ X 3 s i t t t 3 2 , & . & s a i i i 4 2 , : + ",
"l i t t t 3 , : - O # i a t t 9 3 : : : # . 3 s i t 9 3 : : # X 3 s i t 9 3 : : # X 3 s i t 9 3 , : : % . - l a t t t 3 , : : + ",
"l i t 3 t 9 2 : & X # i a i i i 3 , : : # . 3 l i i i 9 , : # X 3 l i i i 9 , : # X 3 l i i i 9 , : : & . & k i t 3 t 9 3 : : + ",
"a i t 3 3 3 < : & X # a s t t t 4 < : : $ X 3 l i t t 4 , : # X 9 l i t t 4 , : # X 4 l i t t t 2 , : & . % i i t 3 3 3 2 : & + ",
", , : & $ # + + X   + i i t 3 t 9 3 , : # . 3 s t 7 9 3 , : # X 3 k t 7 t 3 , : # X 3 s t 7 9 t 9 < : & . + , , : = $ # # + X   ",
"1 1 1 , : - & $ X   + i a t 9 3 4 3 < : # . 1 a i t 9 3 > : # X 2 a i t 9 3 > : # . 2 a i t 9 3 4 < : % . + : 1 1 , : - & $ O   "
};
