/* XPM */
static char *result[] = {
/* columns rows colors chars-per-pixel */
"64 64 222 2 ",
"   c #151B2D",
".  c #191E2E",
"X  c #181F30",
"o  c #1C2434",
"O  c #1F2A39",
"+  c #1A202E",
"@  c #262C2F",
"#  c #242A35",
"$  c #232D3B",
"%  c #262733",
"&  c #26313E",
"*  c #2C343D",
"=  c #393538",
"-  c #322D37",
";  c #493D3D",
":  c #3C4331",
">  c #484638",
",  c #52433E",
"<  c #574A3D",
"1  c #4D5333",
"2  c #565537",
"3  c #645B3C",
"4  c #5F6635",
"5  c #69683A",
"6  c #777D37",
"7  c #6D7238",
"8  c #293641",
"9  c #2D3944",
"0  c #2C3D49",
"q  c #253341",
"w  c #333D45",
"e  c #353E46",
"r  c #4D3E40",
"t  c #2E414D",
"y  c #33424B",
"u  c #3A454A",
"i  c #39464A",
"p  c #324550",
"a  c #354952",
"s  c #3B4C52",
"d  c #364E59",
"f  c #3C5056",
"g  c #3C535C",
"h  c #37515C",
"j  c #2E4653",
"k  c #3C5962",
"l  c #4B4440",
"z  c #464846",
"x  c #594844",
"c  c #49534B",
"v  c #5A5347",
"b  c #42565A",
"n  c #445A5D",
"m  c #485B5C",
"M  c #425255",
"N  c #5A5D56",
"B  c #654E45",
"V  c #6C5344",
"C  c #675947",
"Z  c #755A47",
"A  c #58655B",
"S  c #7E6346",
"D  c #7C624A",
"F  c #756B4C",
"G  c #646759",
"H  c #6F6B4F",
"J  c #455D61",
"K  c #475D62",
"L  c #4B6465",
"P  c #45646D",
"I  c #4E6A6B",
"U  c #496467",
"Y  c #516C6B",
"T  c #516666",
"R  c #54726E",
"E  c #4A6D72",
"W  c #456B74",
"Q  c #4E7478",
"!  c #537374",
"~  c #53747C",
"^  c #557A7B",
"/  c #5A7C7B",
"(  c #587877",
")  c #526F73",
"_  c #69776A",
"`  c #647D78",
"'  c #636C65",
"]  c #86674D",
"[  c #9A734E",
"{  c #836953",
"}  c #867556",
"|  c #987753",
" . c #8D7449",
".. c #A27653",
"X. c #A57B55",
"o. c #AB7C54",
"O. c #827A64",
"+. c #967F61",
"@. c #798137",
"#. c #798558",
"$. c #6F8052",
"%. c #7E8A67",
"&. c #66827C",
"*. c #7B956C",
"=. c #5C807E",
"-. c #8C8F3B",
";. c #B5B83E",
":. c #A6AD3C",
">. c #99A03B",
",. c #C8CF3E",
"<. c #E1E83E",
"1. c #8B844C",
"2. c #988249",
"3. c #99895D",
"4. c #9B9358",
"5. c #A69749",
"6. c #A98458",
"7. c #B58957",
"8. c #A9985A",
"9. c #B99159",
"0. c #B2934C",
"q. c #B8AC4C",
"w. c #888865",
"e. c #8E8D72",
"r. c #BC9764",
"t. c #AB9667",
"y. c #96AB72",
"u. c #B0A96F",
"i. c #C19B56",
"p. c #D6BA4F",
"a. c #CCA753",
"s. c #D4B752",
"d. c #C7B650",
"f. c #C19A65",
"g. c #CCB56E",
"h. c #C9C646",
"j. c #DBCA4C",
"k. c #CDD441",
"l. c #D6D546",
"z. c #D0CA56",
"x. c #E2DB48",
"c. c #E3D95A",
"v. c #DCE34B",
"b. c #E9EE43",
"n. c #E6EA44",
"m. c #EAF244",
"M. c #EAF14D",
"N. c #EBF159",
"B. c #CCC872",
"V. c #DBE578",
"C. c #E8E76C",
"Z. c #EFF477",
"A. c #E8E975",
"S. c #577D83",
"D. c #5B8383",
"F. c #5C858A",
"G. c #5D8B8C",
"H. c #588385",
"J. c #5E8F90",
"K. c #5F9293",
"L. c #628C8B",
"P. c #658888",
"I. c #67928C",
"U. c #76958B",
"Y. c #658D93",
"T. c #639595",
"R. c #6A9595",
"E. c #659C9C",
"W. c #6B9C9C",
"Q. c #679997",
"!. c #729D9D",
"~. c #729892",
"^. c #7C8C83",
"/. c #6CA19E",
"(. c #73A49F",
"). c #79A394",
"_. c #6F9DA1",
"`. c #6CA3A3",
"'. c #73A4A5",
"]. c #75ABAB",
"[. c #7BABAC",
"{. c #79A9A6",
"}. c #7CAEB1",
"|. c #7CB2B3",
" X c #8BA797",
".X c #95B199",
"XX c #B5BD97",
"oX c #B2B98C",
"OX c #83ADA4",
"+X c #8CAFA8",
"@X c #88B5A9",
"#X c #9CBDA9",
"$X c #93B9AA",
"%X c #82B4B5",
"&X c #84BBBC",
"*X c #88BEBE",
"=X c #88B8B6",
"-X c #87978C",
";X c #C1B88B",
":X c #9AC4B7",
">X c #8CC1BF",
",X c #A5CAB8",
"<X c #AED1BD",
"1X c #B1D2BD",
"2X c #AECDA7",
"3X c #DAD086",
"4X c #E8E286",
"5X c #F1F586",
"6X c #F4F79C",
"7X c #F4F8A3",
"8X c #F6F8B6",
"9X c #EAE5A4",
"0X c #E2DB87",
"qX c #89BFC0",
"wX c #86BCC0",
"eX c #8CC3C4",
"rX c #8FC8C8",
"tX c #92C5C3",
"yX c #99C9C2",
"uX c #F9FACB",
"iX c #FEFFFA",
"pX c None",
/* pixels */
"pXpXpXpXpXpXpXpXpXpXpXpXpXpXpXpXpXpXpXpXpXpXpXpXpXpXpXpXpXpXpXpXpXpXpXpXpXpXpXpXpXpXpXpXpXpXpXpXpXpXpXpXpXpXpXpXpXpXpXpXpXpXpXpX",
"pXpXpXpXpXpXpXpXpXpXpXpXpXpXpXpXpXpXpXpXpXpXpXpXpXpXpXpXpXpXpXpXpXpXpXpXpXpXpXpXpXpXpXpXpXpXpXpXpXpXpXpXpXpXpXpXpXpXpXpXpXpXpXpX",
"pXpXpXpXpXpXpXpXpXpXpXpXpXpXpXpXpXpXpXpXpXpXpXpXpXpXpXpXpXpX  pXpXo pXpXpXpXpXpXpXpXpXpXpXpXpXpXpXpXpXpXpXpXpXpXpXpXpXpXpXpXpXpX",
"pXpXpXpXpXpXpXpXpXpXpXpXpXpXpXpXpXpXpXpXpXpXpXpXpXpXpX$ $ O y ) I J 9 o o pXpXpXpXpXpXpXpXpXpXpXpXpXpXpXpXpXpXpXpXpXpXpXpXpXpXpX",
"pXpXpXpXpXpXpXpXpXpXpXpXpXpXpXpXpXpXpXpXpXpXpXpXp h d J.K.S.D.E.E.K.G.I I } w.t pXpXpXpXpXpXpXpXpXpXpXpXpXpXpXpXpXpXpXpXpXpXpXpX",
"pXpXpXpXpXpXpXpXpXpXpXpXpXpXpXpXpXpXpXpXpXpXo y '.~ W.|.|.E.G.T.E.E.E.G.T.w.oXK.0 o pXpXpXpXpXpXpXpXpXpXpXpXpXpXpXpXpXpXpXpXpXpX",
"pXpXpXpXpXpXpXpXpXpXpXpXpXpXpXpXpXpXpXpXpXpXh `.qXW.`.`.E.E.E.E.E.`.].E.`.! G.eX`.d pXpXpXpXpXpXpXpXpXpXpXpXpXpXpXpXpXpXpXpXpXpX",
"pXpXpXpXpXpXpXpXpXpXpXpXpXpXpXpXpXpXpXpX  $ ! ].wX!.^.[.|.].L.W.|.&X|.`.}.Q.`.wX].! $   pXpXpXpXpXpXpXpXpXpXpXpXpXpXpXpXpXpXpXpX",
"pXpXpXpXpXpXpXpXpXpXpXpXpXpXpXpXpXpXpXO $ q ^ `.eX.Xf.$XeX}.L.R.>XeXeXeXF.K '.qX'.^ 8 $ O pXpXpXpXpXpXpXpXpXpXpXpXpXpXpXpXpXpXpX",
"pXpXpXpXpXpXpXpXpXpXpXpXpXpXpXpXpXpX0 G.k y R Q.,X2X4X*.K.`.E.G.Q.wX&X].J P.wX:XW.Y y k G.0 pXpXpXpXpXpXpXpXpXpXpXpXpXpXpXpXpXpX",
"pXpXpXpXpXpXpXpXpXpXpXpXpXpXpXpXpXt h K.m y L D.W.).#.T Q.`.E.E.E.E.G.!.) D.!.`.D.m y b E.d t pXpXpXpXpXpXpXpXpXpXpXpXpXpXpXpXpX",
"pXpXpXpXpXpXpXpXpXpXpXpXpXpXpXpXk J.E e.{ K P H.E.F.U / ].`.`.].].W./.*X~.} e.R.F.d s I Q.I J.h pXpXpXpXpXpXpXpXpXpXpXpXpXpXpXpX",
"pXpXpXpXpXpXpXpXpXpXpXpXpXpXpXpXa T.Y oXB.` ].|.W.I L I '.|.|.W.U Y {.|.D.5.V..X|.|.D.=.T.! T.a pXpXpXpXpXpXpXpXpXpXpXpXpXpXpXpX",
"pXpXpXpXpXpXpXpXpXpXpXpXpXpXpX& f G.n y.8.L }.rX[.g 0 L W.eXeXOX_ I ].E.K a.uXXXqX*X/ S.H.b G.f q pXpXpXpXpXpXpXpXpXpXpXpXpXpXpX",
"pXpXpXpXpXpXpXpXpXpXpXpXpXpXo b m m u z = U !.:XeX].8 I K.`.[.=X+X=.E.E.! 2.c.y.wX_.L i s i m m b o pXpXpXpXpXpXpXpXpXpXpXpXpXpX",
"pXpXpXpXpXpXpXpXpXpXpXpXpXpX& T M i N c 8 ! Q.+X{.~ 9 Y Q./.E.E.K.I T.E.H.* F ).].E.^ w i e w b L & pXpXpXpXpXpXpXpXpXpXpXpXpXpX",
"pXpXpXpXpXpXpXpXpXpXpXpXpXo w b b ` oX1.a ^ E.E.Q.~ ~ ! G.Q.E.E.K.n Y.E.E K P D././.=.g 8 J S.g m e o pXpXpXpXpXpXpXpXpXpXpXpXpX",
"pXpXpXpXpXpXpXpXpXpXpXpX& b s & _.@X0X4.N _ G.S.W.rXeX!.( D.Q.E.D.f S.].%X*X>XR.S.H.U U ! |.rXY.$ s b & pXpXpXpXpXpXpXpXpXpXpXpX",
"pXpXpXpXpXpXpXpXpXpXpXpXs Y i a }.{.w.v 8.r.v t D.&XeX>X&XL.J D.R 0 ) &XtX,X:XI.t O t ~ }.eXeX[.a * L s pXpXpXpXpXpXpXpXpXpXpXpX",
"pXpXpXpXpXpXpXpXpXpXpXi m L 9 L W.eX>Xy.8XC.F K =./.>X<X1X#Xa m f & M ( OXOX/.G.L g ( |.eXeXeX/.L * L K i pXpXpXpXpXpXpXpXpXpXpX",
"pXpXpXpXpXpXpXpXpXpXpXy L i s R K.'.:Xz.5XB.C L ! K./.{.:XU.f =.D.{.|.Y.! E.E.G.I } 3.-X&X|./.T.R s * m y pXpXpXpXpXpXpXpXpXpXpX",
"pXpXpXpXpXpXpXpXpXpXpX# * o a Y G./.Q.y.q.0.> L ^ J./.E.Q.! b [.rXrX,X!.I Q.R.&.s ;.C.XXE./.E.K.Y a ; 4.* pXpXpXpXpXpXpXpXpXpXpX",
"pXpXpXpXpXpXpXpXpXpX+ a 9 $ y L =.E.E.K.c N 9 K G./.E.E.W.! y =.`.%XOXS.P K._ u.v l.6XV.I./.T.D.L 0 z u.M o pXpXpXpXpXpXpXpXpXpX",
"pXpXpXpXpXpXpXpXpXpX8 I u s ^ '.H.h G.Q.n K 8 b J.E./.E.T.R m D.E.E.E.E J E 2.B.> a.c.,.R F.k S.'.^ s i T 8 pXpXpXpXpXpXpXpXpXpX",
"pXpXpXpXpXpXpXpXpX& u Y M s P.eX>XG.T.'.I y o J S.K.E.E.=.3.w.P.Q.`.E.P F.}._ y.J x 5.#.R.R.P.qXeXP.f f I u # pXpXpXpXpXpXpXpXpX",
"pXpXpXpXpXpXpXpXpXs N 8.} m (.>XeXeXeXeX[.b y ].|.Y.Q.E.! 6.oXR E }.*X=XeXqX].&X[.j L [.eXeXeXqXeX(.b s Y n e pXpXpXpXpXpXpXpXpX",
"pXpXpXpXpXpXpXpXpXJ O.4X8.=.|.eXeXeXeXeX%XL y P.qX*X|.].T.U.w.b y P.[.$X@XW.E.`.P.y L |.eXeXeXeX>X%X( y L s b pXpXpXpXpXpXpXpXpX",
"pXpXpXpXpXpXpXpXpXn F c. .W `.].|.,X<X#X=.L y I W.tX1X1X<X>X`.E e ^ Q.E.E.E.E.T.Y 9 L P.:X<X<X,X$X/.F.9 & y U pXpXpXpXpXpXpXpXpX",
"pXpXpXpXpXpXpXpXo s i 2 > H./.E.].=X#X~.Y L t T F.(.$X#X#X'.E.( s ! J.W.E.E.E.D.I e K Y ~.$X:X XQ./.J.$ o u s % pXpXpXpXpXpXpXpX",
"pXpXpXpXpXpXpXpX# i 9 h W ~ E.E.E.E.E.G.I n & n H.T.E.E.E./.G.N z K F.W.E.E.E.J.I 0 K I G./.K.` t.~.Q E b 9 e # pXpXpXpXpXpXpXpX",
"pXpXpXpXpXpXpXpX& i & I T.F.`.E.E.E.E.T.Y t = v Y Y.U.~.~.&.N o.6.B G Y / H.P b v ; t I K./.G.G 9X.XH.K.I * i $ pXpXpXpXpXpXpXpX",
"pXpXpXpXpXpXpXpX& = 9 I / %XeX|.]./.E.T.f X Z 9.9.} F r.r.} | g.g.| } 9.6.{ D 9.i.F + f T.e.3.v q.*.|.H.' 8.H & pXpXpXpXpXpXpXpX",
"pXpXpXpXpXpXpX. * & s Y Y P.=XrXeX|.Q.D.L u ; 6.6.B C 7.r.C C 7.6.C C r.X.v C 9.6.l p U ' d.5Xw.P.[.P.T c g.w.&   pXpXpXpXpXpXpX",
"pXpXpXpXpXpXpX. % h P.Y _ X.w.!.}.`.! L Y K l ..o.V Z ..7.Z Z o.[ V Z o.o.V V o.[ ; U T z g.8XV.).! Y I K *.c $   pXpXpXpXpXpXpX",
"pXpXpXpXpXpXpX. a Y.eX(.XXC.;.m P.~.P b T p , 7.o.Z Z i.7.S S 7.9.S S 0.o.] Z 7.o.x p T u 9.c.,.A Y T ( '.>XG.a X pXpXpXpXpXpXpX",
"pXpXpXpXpXpXpXo I '.eX+XA.6Xl.> e.w.h g b o - [ 2.< ; q.q.3 < [ d.5 5 h. .< 3 2.[ = o M d C 4.H * b I.|.eXeX'.I o pXpXpXpXpXpXpX",
"pXpXpXpXpXpXpX$ ^ `.&X&.h.c.9.v B.1.U |.!.K % + @ . . - 1 1 1 : : 1 1 1 @   . @ % # K !.%X}.=X'.t L.eX:XyX>X`.Q $ pXpXpXpXpXpXpX",
"pXpXpXpXpXpXpX9 G.E.`.H.*.q.3 9 #.G =X,XP.U 9 ; = l @ 6 ,.v.<.,.v.c.v.,.6 % ; - = 9 U P.<X<XtX{.a ! [.:X+X'./.G.w pXpXpXpXpXpXpX",
"pXpXpXpXpXpXpX0 T.E.E.E.E.P.J f ^ T.@XOXL.I e Z B ] x :.m.N.6X7XZ.Z.Z.m.:.l x B Z e I L.).$X'.F.f Y Q.K.E.E./.K.0 pXpXpXpXpXpXpX",
"pXpXpXpXpXpX  q K./.E.E.E.R.G y T./.E.E.E.~ 9 B ] | Z -.b.Z.iXiX8XN.b.n.-.Z Z [ Z w ~ T.E.E.W.R.a 9 H./.E.E./.J.q   pXpXpXpXpXpX",
"pXpXpXpXpXpX  9 D.|.'.E.Q.U.g.l ~ `.E.E.E.^ a V o.0.[ 5 b.5XiXiXuX6XM.m.7 :.6.o.V a / E.E.E.R.8.3.b I W.E.`.|.D.9   pXpXpXpXpXpX",
"pXpXpXpXpXpXo J T.&X&X|.|.2X4X2 W /.E./.T.^ y V ..6.5.6 b.5X7X7X8X6XM.n.7 q.0...V z +.~.E.Q.` z.3X+X|.&X|.&X&XT.J X pXpXpXpXpXpX",
"pXpXpXpXpXpXo I E.`.>XrXeX:Xy.9 W E.`.E.! f . , o.X.q.@.b.b.<.Z.uX5XM.k.1 d.9.o.l 2 0Xe.T.`.m 0.d.).tXeXrXeX`.E.E o pXpXpXpXpXpX",
"pXpXpXpXpX  8 ^ E.E.OX X@X=XT.) |.&X>X|.I.P j ; ..| q.4 <.b.m.M.N.N.m.k.> z.6.7.> > u..X=XeX( G _ G.=X$X XOXE.E.( 8   pXpXpXpXpX",
"pXpXpXpXpX  8 ! K.`.K.J.I./.L.(.eXeXeXeXrX&XG.e [ o.s.5 ,.n.n.n.m.m.m.,.2 z.[ X.e E ~.*XeXeX*X|.'.G./.I.J.E.E.E.! 9   pXpXpXpXpX",
"pXpXpXpXpXpX9 $ k Q E.`.E.Q.P.:XtXeXeXrXeX&XP % [ f.s.6 ,.x.j.x.v.l.n.,.7 a...[ % E qXeXeXeXeXyX:XP.Q.E.E.E.Q k $ 9 pXpXpXpXpXpX",
"pXpXpXpXpXpXpXpX. O H.`.E.^ m  X,X,X[.!.R.L.Y w Z f.a.@.h.x.x.p.a.s.n.q.7 a.o.] e I L.W.!.OX,X,X XK ^ `.E.H.O . pXpXpXpXpXpXpXpX",
"pXpXpXpXpXpXpXpXpXpXk K.K.k y / (.'.Q.Q.Q.T.( f ] i.0.5 h.x.j.s.a.j.b.>.2 0.7.Z f ! T.T.T.T.'.'.( t h K.T.k pXpXpXpXpXpXpXpXpXpX",
"pXpXpXpXpXpXpXpXpXpXpXpXq o $ ! E.E.E.E.K.W k b D 7...3 h.x.j.i.s.s.p.>., X.o.x p j E K.`.K././.! O X & pXpXpXpXpXpXpXpXpXpXpXpX",
"pXpXpXpXpXpXpXpXpXpXpXpXpXpXpXt F.T.E.E.E   o 9 l ....Z l.b.j.a.a.a.p.-.3 X.X., O   o g K./.K.H.t   pXpXpXpXpXpXpXpXpXpXpXpXpXpX",
"pXpXpXpXpXpXpXpXpXpXpXpXpXpXpXpX$ k ) pXpXpXpXpX- ] ] ] ;.n.p.pXpXa.a.3 , Z .., pXpXpXpXpXS.h O pXpXpXpXpXpXpXpXpXpXpXpXpXpXpXpX",
"pXpXpXpXpXpXpXpXpXpXpXpXpXpXpXpXpXpXpXpXpXpXpX  . = B Z @ pXpXpXpXpXpXpX. % x % pXpXpXpXpXpXpXpXpXpXpXpXpXpXpXpXpXpXpXpXpXpXpXpX",
"pXpXpXpXpXpXpXpXpXpXpXpXpXpXpXpXpXpXpXpXpXpXpXpXpXpXpXpXpXpXpXpXpXpXpXpXpXpXpXpXpXpXpXpXpXpXpXpXpXpXpXpXpXpXpXpXpXpXpXpXpXpXpXpX",
"pXpXpXpXpXpXpXpXpXpXpXpXpXpXpXpXpXpXpXpXpXpXpXpXpXpXpXpXpXpXpXpXpXpXpXpXpXpXpXpXpXpXpXpXpXpXpXpXpXpXpXpXpXpXpXpXpXpXpXpXpXpXpXpX",
"pXpXpXpXpXpXpXpXpXpXpXpXpXpXpXpXpXpXpXpXpXpXpXpXpXpXpXpXpXpXpXpXpXpXpXpXpXpXpXpXpXpXpXpXpXpXpXpXpXpXpXpXpXpXpXpXpXpXpXpXpXpXpXpX",
"pXpXpXpXpXpXpXpXpXpXpXpXpXpXpXpXpXpXpXpXpXpXpXpXpXpXpXpXpXpXpXpXpXpXpXpXpXpXpXpXpXpXpXpXpXpXpXpXpXpXpXpXpXpXpXpXpXpXpXpXpXpXpXpX",
"pXpXpXpXpXpXpXpXpXpXpXpXpXpXpXpXpXpXpXpXpXpXpXpXpXpXpXpXpXpXpXpXpXpXpXpXpXpXpXpXpXpXpXpXpXpXpXpXpXpXpXpXpXpXpXpXpXpXpXpXpXpXpXpX",
"pXpXpXpXpXpXpXpXpXpXpXpXpXpXpXpXpXpXpXpXpXpXpXpXpXpXpXpXpXpXpXpXpXpXpXpXpXpXpXpXpXpXpXpXpXpXpXpXpXpXpXpXpXpXpXpXpXpXpXpXpXpXpXpX",
"pXpXpXpXpXpXpXpXpXpXpXpXpXpXpXpXpXpXpXpXpXpXpXpXpXpXpXpXpXpXpXpXpXpXpXpXpXpXpXpXpXpXpXpXpXpXpXpXpXpXpXpXpXpXpXpXpXpXpXpXpXpXpXpX",
"pXpXpXpXpXpXpXpXpXpXpXpXpXpXpXpXpXpXpXpXpXpXpXpXpXpXpXpXpXpXpXpXpXpXpXpXpXpXpXpXpXpXpXpXpXpXpXpXpXpXpXpXpXpXpXpXpXpXpXpXpXpXpXpX",
"pXpXpXpXpXpXpXpXpXpXpXpXpXpXpXpXpXpXpXpXpXpXpXpXpXpXpXpXpXpXpXpXpXpXpXpXpXpXpXpXpXpXpXpXpXpXpXpXpXpXpXpXpXpXpXpXpXpXpXpXpXpXpXpX",
"pXpXpXpXpXpXpXpXpXpXpXpXpXpXpXpXpXpXpXpXpXpXpXpXpXpXpXpXpXpXpXpXpXpXpXpXpXpXpXpXpXpXpXpXpXpXpXpXpXpXpXpXpXpXpXpXpXpXpXpXpXpXpXpX",
"pXpXpXpXpXpXpXpXpXpXpXpXpXpXpXpXpXpXpXpXpXpXpXpXpXpXpXpXpXpXpXpXpXpXpXpXpXpXpXpXpXpXpXpXpXpXpXpXpXpXpXpXpXpXpXpXpXpXpXpXpXpXpXpX",
"pXpXpXpXpXpXpXpXpXpXpXpXpXpXpXpXpXpXpXpXpXpXpXpXpXpXpXpXpXpXpXpXpXpXpXpXpXpXpXpXpXpXpXpXpXpXpXpXpXpXpXpXpXpXpXpXpXpXpXpXpXpXpXpX"
};
